<svg width="34" height="34" viewBox="0 0 34 34" fill="none" xmlns="http://www.w3.org/2000/svg">
<path d="M17.0016 0C12.3846 0 11.8052 0.020188 9.99185 0.10271C8.18204 0.185586 6.9467 0.472109 5.86577 0.892509C4.74765 1.32672 3.79919 1.90756 2.85426 2.85284C1.90862 3.79777 1.32778 4.74624 0.892155 5.864C0.470692 6.94528 0.183814 8.18098 0.102355 9.99008C0.0212501 11.8034 0 12.3832 0 17.0002C0 21.6171 0.0205422 22.1948 0.10271 24.0081C0.18594 25.818 0.472463 27.0533 0.892509 28.1342C1.32708 29.2523 1.90792 30.2008 2.8532 31.1457C3.79777 32.0914 4.74624 32.6736 5.86364 33.1078C6.94528 33.5282 8.18098 33.8148 9.99044 33.8976C11.8038 33.9802 12.3829 34.0004 16.9995 34.0004C21.6168 34.0004 22.1944 33.9802 24.0078 33.8976C25.8176 33.8148 27.0544 33.5282 28.136 33.1078C29.2538 32.6736 30.2008 32.0914 31.1454 31.1457C32.091 30.2008 32.6719 29.2523 33.1075 28.1346C33.5254 27.0533 33.8123 25.8176 33.8973 24.0085C33.9787 22.1951 34 21.6171 34 17.0002C34 12.3832 33.9787 11.8038 33.8973 9.99044C33.8123 8.18063 33.5254 6.94528 33.1075 5.86435C32.6719 4.74624 32.091 3.79777 31.1454 2.85284C30.1998 1.90721 29.2541 1.32637 28.1349 0.892509C27.0512 0.472109 25.8151 0.185586 24.0053 0.10271C22.192 0.020188 21.6147 0 16.9963 0H17.0016ZM15.4765 3.06357C15.9292 3.06286 16.4342 3.06357 17.0016 3.06357C21.5406 3.06357 22.0786 3.07987 23.8711 3.16132C25.5286 3.23712 26.4282 3.51408 27.0274 3.74677C27.8208 4.0549 28.3864 4.42323 28.9811 5.01824C29.5761 5.61325 29.9444 6.17992 30.2532 6.97326C30.4859 7.57181 30.7632 8.4714 30.8387 10.1289C30.9201 11.921 30.9378 12.4594 30.9378 16.9963C30.9378 21.5332 30.9201 22.0715 30.8387 23.8636C30.7629 25.5212 30.4859 26.4208 30.2532 27.0193C29.9451 27.8126 29.5761 28.3775 28.9811 28.9722C28.386 29.5672 27.8211 29.9355 27.0274 30.2437C26.4289 30.4774 25.5286 30.7537 23.8711 30.8295C22.079 30.9109 21.5406 30.9286 17.0016 30.9286C12.4622 30.9286 11.9242 30.9109 10.1321 30.8295C8.47459 30.753 7.575 30.476 6.97539 30.2433C6.18204 29.9352 5.61537 29.5668 5.02036 28.9718C4.42536 28.3768 4.05702 27.8116 3.74818 27.0179C3.5155 26.4193 3.23818 25.5197 3.16274 23.8622C3.08128 22.0701 3.06499 21.5318 3.06499 16.992C3.06499 12.4523 3.08128 11.9168 3.16274 10.1247C3.23853 8.46715 3.5155 7.56756 3.74818 6.9683C4.05631 6.17496 4.42536 5.60829 5.02036 5.01328C5.61537 4.41827 6.18204 4.04994 6.97539 3.7411C7.57464 3.50735 8.47459 3.2311 10.1321 3.15495C11.7004 3.08412 12.3081 3.06287 15.4765 3.05932V3.06357ZM26.0761 5.88631C24.9499 5.88631 24.0361 6.79901 24.0361 7.92562C24.0361 9.05188 24.9499 9.96564 26.0761 9.96564C27.2024 9.96564 28.1162 9.05188 28.1162 7.92562C28.1162 6.79936 27.2024 5.8856 26.0761 5.8856V5.88631ZM17.0016 8.26988C12.1803 8.26988 8.27129 12.1789 8.27129 17.0002C8.27129 21.8215 12.1803 25.7287 17.0016 25.7287C21.8229 25.7287 25.7305 21.8215 25.7305 17.0002C25.7305 12.1789 21.8226 8.26988 17.0012 8.26988H17.0016ZM17.0016 11.3335C20.131 11.3335 22.6683 13.8704 22.6683 17.0002C22.6683 20.1296 20.131 22.6669 17.0016 22.6669C13.8718 22.6669 11.3349 20.1296 11.3349 17.0002C11.3349 13.8704 13.8718 11.3335 17.0016 11.3335Z" fill="black"/>
</svg>
